<svg class="ugb-custom-icon" xmlns="http://www.w3.org/2000/svg" viewBox="0 0 40 40" style="enable-background:new 0 0 40 40" xml:space="preserve" aria-hidden="true" width="32" height="32"><path d="M29.1 27.1c-1.3 0-2.6-.2-3.9-.6-1.2-.4-2.3-1-3.3-1.8-1.2-.9-2-2.1-2.5-3.5-.2-.6-.3-1.2-.3-1.8-.1-3.4 2.6-6.2 6-6.3h.1c2.4 0 4.5 1.3 5.6 3.4.7 1.5 2 2.6 3.5 3.2.4.1.7.2 1.1.2 1.1 0 2.2-.3 3.1-1 .4-.3 1-.2 1.3.2.2.3.2.6.1.9-.9 2.1-2.3 3.9-4.2 5.1-1.9 1.3-4.2 2-6.6 2zm-6-4c.8.6 1.8 1.1 2.8 1.5 1.1.4 2.2.5 3.3.5 2 0 3.9-.6 5.5-1.7.8-.5 1.5-1.1 2.1-1.9-.4.1-.9.1-1.4.1-.6 0-1.2-.1-1.8-.4-2-.8-3.6-2.2-4.5-4.1-.7-1.5-2.2-2.4-3.9-2.4-1.1 0-2.2.4-3 1.3-.8.8-1.2 2-1.2 3.1 0 .4.1.9.2 1.3.4 1.2 1 2 1.9 2.7zm-8.2-10.2c3.4 0 6.1 2.8 6.1 6.2v.1c-.1 2.1-1.1 4.1-2.8 5.4-1 .8-2.1 1.4-3.3 1.8-3.5 1.2-7.4.7-10.5-1.3-1.9-1.2-3.3-3-4.2-5.1-.2-.5 0-1.1.5-1.3.3-.1.7-.1.9.1.9.6 2 1 3.1 1 .4 0 .8-.1 1.1-.2 1.5-.6 2.8-1.7 3.5-3.2 1-2.1 3.2-3.5 5.6-3.5zm4.1 6.4c0-1.2-.4-2.3-1.2-3.1-.8-.8-1.9-1.3-3-1.3-1.6 0-3.1.9-3.9 2.4-.9 1.9-2.6 3.4-4.5 4.1-.6.2-1.2.3-1.8.4-.5 0-.9 0-1.4-.1.6.7 1.3 1.4 2.1 1.9 1.6 1.1 3.6 1.7 5.5 1.7 1.1 0 2.2-.2 3.3-.5 1-.3 1.9-.8 2.8-1.5.8-.7 1.5-1.5 1.9-2.6.1-.6.2-1 .2-1.4z"/></svg>