<svg class="ugb-custom-icon" xmlns="http://www.w3.org/2000/svg" viewBox="0 0 40 40" style="enable-background:new 0 0 40 40" xml:space="preserve" aria-hidden="true" width="32" height="32"><path d="M28.585 9.302h.2c.7.2 1.3.7 1.7 1.3.9 1.3 1.3 3.3 1.4 6 .2 2.5.2 5.1-.1 7.7-.2 2.2-.6 4.5-1.2 6.6-.6 2.2-1.7 4.2-3.2 5.9-1.9 2.1-4.5 3.2-7.3 3.2-2.8.1-5.5-1.1-7.3-3.2-1.5-1.7-2.6-3.8-3.2-5.9-.6-2.2-1.1-4.4-1.2-6.6-.2-2.6-.3-5.1-.1-7.7 0-.5.4-.8.9-.7h.2c.9.2 1.9.4 2.8.3 1.1 0 2.2-.2 3.2-.5 1.3-.4 2.4-1.1 3.4-2 .3-.3.9-.3 1.2.1.2.2.3.5.2.8-.4.9-.9 1.8-1.5 2.6.3-.1.6-.3.9-.4 1.5-.8 3-1.7 4.3-2.8 1.6-1.2 2.9-2.7 4.1-4.4.1-.2.3-.3.6-.3zm-8.6 29c1.2 0 2.4-.2 3.5-.7 1-.5 1.9-1.1 2.6-1.9 1.3-1.5 2.3-3.4 2.8-5.3.6-2 1-4.1 1.2-6.3.2-2.5.2-4.9.1-7.4v-.1c0-1.5-.2-3.6-1-4.9-.1-.2-.2-.4-.4-.5-1.1 1.5-2.5 2.9-4 4.1-1.4 1.1-3 2.1-4.6 2.9-1.7.8-3.4 1.5-5.2 2-.4.1-.9-.2-1-.6-.1-.4.1-.7.4-.9.8-.5 1.5-1 2.1-1.7-1.4.6-3 .8-4.5.8-.8 0-1.6-.1-2.3-.2-.1 2.2-.1 4.3.1 6.5.2 2.1.6 4.2 1.2 6.3.5 2 1.5 3.8 2.8 5.3.7.8 1.6 1.5 2.6 1.9 1.2.5 2.4.8 3.6.7zm11.1-13.1c-.5 0-.8-.4-.8-.8 0-.2.1-.3.1-.5.9-1.5 1.6-3.1 2-4.8.4-1.7.5-3.4.4-5.1-.2-2.2-.8-4.3-1.8-6.2-1.2-2.4-3.2-4.3-5.7-5.4-1.4-.6-3-.9-4.5-.8-2 .2-3.9 1.1-5.4 2.5-.2.1-.4.2-.6.2-1.2 0-2.3.2-3.4.7-1 .5-1.8 1.2-2.4 2-.9 1.3-1.4 2.8-1.6 4.4-.2 1.8-.3 3.6-.2 5.4 0 1.4.2 2.8.6 4.1.2 1.1.8 2 1.7 2.7.4.3.5.8.2 1.2-.3.4-.8.5-1.2.2-1.8-1.3-2.8-4-3-8.2-.1-1.9 0-3.8.3-5.6.2-1.9.8-3.6 1.9-5.2.8-1.1 1.9-2 3.1-2.6 1.2-.6 2.5-.8 3.8-.9 4.4-3.6 8.6-2.9 11.4-1.7 2.8 1.2 5.1 3.4 6.5 6.1 1.1 2.1 1.8 4.5 2 6.9.2 1.9 0 3.8-.4 5.7-.4 1.9-1.2 3.7-2.2 5.3-.2.3-.5.4-.8.4z"/></svg>