<svg class="ugb-custom-icon" xmlns="http://www.w3.org/2000/svg" viewBox="0 0 40 40" style="enable-background:new 0 0 40 40" xml:space="preserve" aria-hidden="true" width="32" height="32"><path d="M36.6 37.2c-.3 0-.6-.2-.8-.5-.7-1.7-1.3-3.3-1.9-5.1-1-3.2-1.7-6.4-2.1-9.8-.6.2-1.6.4-2.7.6-3.1.6-6.3.9-9.5.9-4 0-7.9-.5-11.7-1.6 0 1.1 0 2.9-.1 5-.3 4.5-1.1 7.9-2.3 9.9-.2.4-.8.5-1.1.3-.3-.2-.5-.5-.4-.9.1-.8.1-1.9 0-3-.3-3-1-5.8-2.2-8.5v-.1c-.2-.8-.2-1.7-.2-2.5.1-.8.2-1.5.6-2.3-.2.2-.5.4-.8.6-.3.3-.9.3-1.2-.1-.2-.2-.3-.6-.1-.9.6-1.2 1.3-2.4 2-3.6.9-1.5 2.1-2.8 3.4-3.9-.9-.5-1.8-1.2-2.4-2.1-.3-.4-.2-.9.2-1.2.2-.1.3-.2.5-.2h1c1 0 2.1-.1 3.1-.2-1.1-.7-2-1.8-2.5-3-.2-.3-.1-.7.1-.9.2-.2.6-.3.9-.2 1.1.4 2.2.5 3.4.5h.9c1.1-.1 2.3-.3 3.4-.6 2.2-.6 4.5-1 6.8-1 2.1 0 4.1.3 6.1 1s3.8 1.8 5.3 3.2c.8-.7 1.8-1.1 2.9-1.1.3 0 .5 0 .8.1.4.1.7.4.7.7 0 .4-.2.7-.5.9-.3.1-.6.4-.6.8-.1.4.1.7.3 1 1 .9 1.9 2.1 2.6 3.3.8 1.5 1.3 3.1 1.5 4.8.2 1.7 0 3.4-.4 5-.5 2-1.3 4.9-1.8 7.6-.8 4.1-.5 5.6-.3 6.1.2.4 0 .9-.5 1.1-.2-.1-.3-.1-.4-.1zM32.7 20c.4 0 .8.4.8.8.2 3.5.9 7 2 10.4.1.2.1.4.2.6.1-.6.2-1.3.3-2 .5-2.8 1.3-5.7 1.8-7.7.4-1.4.5-2.9.4-4.4-.2-1.5-.6-2.9-1.3-4.2-.6-1.1-1.3-2-2.2-2.9-.7-.6-1-1.6-.9-2.5v-.2c-.3.2-.6.4-.8.7-.2.4-.8.5-1.1.3-.1 0-.1-.1-.2-.1-1.5-1.5-3.3-2.7-5.3-3.4-1.8-.6-3.7-.9-5.5-.9-2.1 0-4.3.3-6.3.9-1.2.4-2.5.6-3.7.7h-1C9.2 6 8.6 6 8 5.9c.7.7 1.5 1.2 2.4 1.6.4.1.7.6.5 1.1-.1.2-.2.4-.4.5-.8.3-2.1.8-4.6.9.2.1.3.2.5.3.4.2.7.4 1.1.5.4.1.7.6.6 1-.1.3-.3.5-.5.6-1.2.5-2.6 1.9-4.1 4.2-.2.1-.3.4-.5.7.2-.1.4-.1.7-.1.5 0 .9.1 1.3.5.3.3.3.9 0 1.2l-.1.1c-1 .7-1.6 1.8-1.6 3 0 .7 0 1.3.1 1.9.7 1.6 1.3 3.4 1.7 5.1.2.9.4 1.7.5 2.6.2-1.6.4-3.2.5-4.8.1-2 .2-4 .1-6 0-.4.3-.8.8-.8h.3c4 1.2 8.2 1.8 12.4 1.8 4.3 0 8.6-.6 12.8-1.8h.2z"/></svg>