<svg width="1700" height="830" viewBox="0 0 1700 830" fill="none" xmlns="http://www.w3.org/2000/svg">
<g clip-path="url(#clip0_29_2)">
<path opacity="0.3" d="M1054.47 -864.112C1146.34 -667.081 1275.76 -727.431 1367.64 -530.4C1459.52 -333.369 1330.1 -273.019 1421.97 -75.9872C1513.85 121.044 1643.27 60.6942 1735.15 257.726C1827.03 454.757 1697.61 515.107 1789.48 712.138C1881.36 909.169 2010.78 848.819 2102.66 1045.85M2029.43 1080C1937.55 882.967 1808.13 943.317 1716.25 746.286C1624.38 549.254 1753.8 488.904 1661.92 291.873C1570.04 94.8418 1440.62 155.192 1348.74 -41.8397C1256.87 -238.871 1386.29 -299.221 1294.41 -496.252C1202.53 -693.284 1073.11 -632.934 981.236 -829.965M907.915 -795.775C999.793 -598.744 1129.21 -659.094 1221.09 -462.062C1312.97 -265.031 1183.55 -204.681 1275.42 -7.64988C1367.3 189.381 1496.72 129.032 1588.6 326.063C1680.48 523.094 1551.06 583.444 1642.93 780.475C1734.81 977.507 1864.23 917.157 1956.11 1114.19M810.125 -750.175C902.002 -553.143 1031.42 -613.493 1123.3 -416.462C1215.18 -219.431 1085.76 -159.081 1177.63 37.9506C1269.51 234.982 1398.93 174.632 1490.81 371.663C1582.69 568.695 1453.27 629.045 1545.14 826.076C1637.02 1023.11 1766.44 962.757 1858.32 1159.79M712.425 -704.616C804.302 -507.585 933.723 -567.935 1025.6 -370.904C1117.48 -173.872 988.056 -113.522 1079.93 83.5089C1171.81 280.54 1301.23 220.19 1393.11 417.222C1484.99 614.253 1355.57 674.603 1447.44 871.634C1539.32 1068.67 1668.74 1008.32 1760.62 1205.35M663.575 -681.837C755.452 -484.806 884.873 -545.156 976.75 -348.125C1068.63 -151.093 939.206 -90.7433 1031.08 106.288C1122.96 303.319 1252.38 242.97 1344.26 440.001C1436.14 637.032 1306.72 697.382 1398.59 894.413C1490.47 1091.44 1619.89 1031.09 1711.77 1228.13M614.725 -659.058C706.602 -462.027 836.023 -522.377 927.9 -325.345C1019.78 -128.314 890.356 -67.9642 982.234 129.067C1074.11 326.098 1203.53 265.749 1295.41 462.78C1387.29 659.811 1257.87 720.161 1349.74 917.192C1441.62 1114.22 1571.04 1053.87 1662.92 1250.91M1638.54 1262.27C1546.66 1065.24 1417.24 1125.59 1325.36 928.561C1233.49 731.53 1362.91 671.18 1271.03 474.148C1179.15 277.117 1049.73 337.467 957.854 140.436C865.977 -56.5957 995.397 -116.946 903.52 -313.977C811.643 -511.008 682.222 -450.658 590.345 -647.69M565.875 -636.279C657.752 -439.248 787.173 -499.598 879.05 -302.566C970.927 -105.535 841.506 -45.1851 933.384 151.846C1025.26 348.878 1154.68 288.528 1246.56 485.559C1338.44 682.59 1209.02 742.94 1300.89 939.972C1392.77 1137 1522.19 1076.65 1614.07 1273.68M1589.6 1285.09C1497.72 1088.06 1368.3 1148.41 1276.42 951.382C1184.54 754.351 1313.97 694.001 1222.09 496.97C1130.21 299.938 1000.79 360.288 908.913 163.257C817.036 -33.7744 946.457 -94.1243 854.58 -291.156C762.702 -488.187 633.282 -427.837 541.404 -624.868M516.934 -613.458C608.811 -416.426 738.232 -476.776 830.109 -279.745C921.987 -82.7136 792.566 -22.3637 884.443 174.668C976.32 371.699 1105.74 311.349 1197.62 508.38C1289.5 705.412 1160.07 765.762 1251.95 962.793C1343.83 1159.82 1473.25 1099.47 1565.13 1296.51M1540.75 1307.87C1448.87 1110.84 1319.45 1171.19 1227.57 974.161C1135.69 777.13 1265.12 716.78 1173.24 519.749C1081.36 322.718 951.94 383.067 860.063 186.036C768.186 -10.9952 897.607 -71.3452 805.73 -268.377C713.852 -465.408 584.432 -405.058 492.554 -602.089M468.084 -590.678C559.961 -393.647 689.382 -453.997 781.259 -256.966C873.137 -59.9345 743.716 0.415468 835.593 197.447C927.47 394.478 1056.89 334.128 1148.77 531.16C1240.65 728.191 1111.22 788.541 1203.1 985.572C1294.98 1182.6 1424.4 1122.25 1516.28 1319.28M1491.9 1330.65C1400.02 1133.62 1270.6 1193.97 1178.72 996.941C1086.84 799.909 1216.27 739.559 1124.39 542.528C1032.51 345.497 903.091 405.847 811.213 208.815C719.336 11.7839 848.757 -48.5661 756.88 -245.597C665.002 -442.629 535.582 -382.279 443.704 -579.31M419.234 -567.899C511.111 -370.868 640.532 -431.218 732.409 -234.187C824.287 -37.1554 694.866 23.1946 786.743 220.226C878.62 417.257 1008.04 356.907 1099.92 553.939C1191.8 750.97 1062.37 811.32 1154.25 1008.35C1246.13 1205.38 1375.55 1145.03 1467.43 1342.06M1443.05 1353.43C1351.17 1156.4 1221.75 1216.75 1129.87 1019.72C1037.99 822.688 1167.42 762.338 1075.54 565.307C983.661 368.276 854.241 428.626 762.363 231.594C670.486 34.563 799.907 -25.7869 708.03 -222.818C616.152 -419.85 486.732 -359.5 394.854 -556.531M370.384 -545.12C462.261 -348.089 591.682 -408.439 683.559 -211.408C775.437 -14.3762 646.016 45.9737 737.893 243.005C829.77 440.036 959.191 379.687 1051.07 576.718C1142.95 773.749 1013.52 834.099 1105.4 1031.13C1197.28 1228.16 1326.7 1167.81 1418.58 1364.84M1394.2 1376.21C1302.32 1179.18 1172.9 1239.53 1081.02 1042.5C989.145 845.467 1118.57 785.118 1026.69 588.086C934.811 391.055 805.391 451.405 713.513 254.373C621.636 57.3421 751.057 -3.00781 659.18 -200.039C567.302 -397.07 437.882 -336.72 346.005 -533.752M321.534 -522.341C413.411 -325.31 542.832 -385.66 634.709 -188.628C726.587 8.40288 597.166 68.7528 689.043 265.784C780.92 462.815 910.341 402.466 1002.22 599.497C1094.1 796.528 964.675 856.878 1056.55 1053.91C1148.43 1250.94 1277.85 1190.59 1369.73 1387.62M1345.35 1398.99C1253.47 1201.96 1124.05 1262.31 1032.17 1065.28C940.295 868.247 1069.72 807.897 977.839 610.865C885.961 413.834 756.541 474.184 664.663 277.153C572.786 80.1213 702.207 19.7713 610.33 -177.26C518.452 -374.291 389.032 -313.941 297.155 -510.973M272.684 -499.562C364.561 -302.531 493.982 -362.881 585.859 -165.849C677.737 31.182 548.316 91.532 640.193 288.563C732.07 485.595 861.491 425.245 953.368 622.276C1045.25 819.307 915.825 879.657 1007.7 1076.69C1099.58 1273.72 1229 1213.37 1320.88 1410.4M1296.5 1421.77C1204.62 1224.74 1075.11 1285.13 983.232 1088.1C891.354 891.068 1020.78 830.718 928.898 633.687C837.021 436.655 707.6 497.005 615.765 300.065C523.888 103.033 653.308 42.6833 561.431 -154.348C469.554 -351.379 340.133 -291.029 248.256 -488.061M223.834 -476.783C315.711 -279.752 445.132 -340.102 537.009 -143.07C628.887 53.9611 499.466 114.311 591.343 311.342C683.22 508.374 812.641 448.024 904.518 645.055C996.395 842.086 866.975 902.436 958.852 1099.47C1050.73 1296.5 1180.15 1236.15 1272.03 1433.18M1247.56 1444.59C1155.68 1247.56 1026.26 1307.91 934.382 1110.88C842.504 913.847 971.925 853.497 880.048 656.466C788.171 459.435 658.75 519.784 566.873 322.753C474.996 125.722 604.416 65.3718 512.539 -131.659C420.662 -328.691 291.241 -268.341 199.364 -465.372M174.894 -453.961C266.771 -256.93 396.192 -317.28 488.069 -120.249C579.946 76.7825 450.525 137.132 542.402 334.164C634.28 531.195 763.7 470.845 855.578 667.877C947.545 864.866 818.034 925.258 909.911 1122.29C1001.79 1319.32 1131.3 1258.93 1223.18 1455.96M1198.71 1467.37C1106.83 1270.34 977.409 1330.69 885.532 1133.66C793.654 936.626 923.075 876.276 831.198 679.245C739.321 482.214 609.9 542.564 518.023 345.532C426.146 148.501 555.566 88.151 463.689 -108.88C371.812 -305.912 242.391 -245.562 150.514 -442.593M126.044 -431.182C217.921 -234.151 347.342 -294.501 439.219 -97.4697C531.096 99.5616 401.675 159.912 493.552 356.943C585.43 553.974 714.85 493.624 806.728 690.656C898.605 887.687 769.184 948.037 861.061 1145.07C952.939 1342.1 1082.36 1281.75 1174.24 1478.78M1149.86 1490.15C1057.98 1293.12 928.559 1353.47 836.682 1156.44C744.804 959.405 874.225 899.055 782.348 702.024C690.471 504.993 561.05 565.343 469.173 368.311C377.296 171.28 506.716 110.93 414.839 -86.1012C322.962 -283.133 193.541 -222.783 101.664 -419.814M77.1936 -408.403C169.071 -211.372 298.492 -271.722 390.369 -74.6905C482.246 122.341 352.825 182.691 444.702 379.722C536.58 576.753 666 516.404 757.878 713.435C849.755 910.466 720.334 970.816 812.211 1167.85C904.089 1364.88 1033.51 1304.53 1125.39 1501.56M1101.01 1512.93C1009.13 1315.9 879.709 1376.25 787.832 1179.22C695.954 982.184 825.375 921.835 733.498 724.803C641.621 527.772 512.2 588.122 420.323 391.09C328.446 194.059 457.866 133.709 365.989 -63.3221C274.112 -260.353 144.691 -200.003 52.8139 -397.035M28.3436 -385.624C120.221 -188.593 249.642 -248.943 341.519 -51.9114C433.396 145.12 303.975 205.47 395.852 402.501C487.73 599.532 617.15 539.183 709.028 736.214C800.905 933.245 671.484 993.595 763.361 1190.63C855.239 1387.66 984.659 1327.31 1076.54 1524.34M1052.16 1535.71C960.28 1338.68 830.859 1399.03 738.982 1201.99C647.104 1004.96 776.525 944.614 684.648 747.582C592.771 550.551 463.35 610.901 371.473 413.87C279.596 216.838 409.016 156.488 317.139 -40.543C225.262 -237.574 95.8411 -177.224 3.96393 -374.256M-20.5064 -362.845C71.3708 -165.814 200.792 -226.164 292.669 -29.1323C384.546 167.899 255.125 228.249 347.002 425.28C438.88 622.312 568.3 561.962 660.178 758.993C752.055 956.024 622.634 1016.37 714.511 1213.41C806.389 1410.44 935.809 1350.09 1027.69 1547.12M1003.31 1558.49C911.43 1361.46 782.009 1421.81 690.132 1224.77C598.254 1027.74 727.675 967.393 635.798 770.362C543.921 573.33 414.5 633.68 322.623 436.649C230.746 239.617 360.166 179.267 268.289 -17.7639C176.412 -214.795 46.9912 -154.445 -44.8861 -351.477M-118.297 -317.244C-26.4198 -120.213 103.001 -180.563 194.878 16.4682C286.755 213.5 157.335 273.849 249.212 470.881C341.089 667.912 470.51 607.562 562.387 804.594C654.264 1001.62 524.844 1061.97 616.721 1259.01C708.598 1456.04 838.019 1395.69 929.896 1592.72M856.666 1626.87C764.789 1429.84 635.368 1490.18 543.491 1293.15C451.614 1096.12 581.035 1035.77 489.157 838.741C397.28 641.71 267.859 702.06 175.982 505.028C84.105 307.997 213.526 247.647 121.648 50.6158C29.7713 -146.416 -99.6495 -86.0656 -191.527 -283.097M807.816 1649.65C715.939 1452.61 586.518 1512.96 494.641 1315.93C402.764 1118.9 532.185 1058.55 440.307 861.52C348.43 664.489 219.009 724.839 127.132 527.807C35.255 330.776 164.676 270.426 72.7985 73.3949C-19.0787 -123.636 -148.499 -63.2865 -240.377 -260.318M758.966 1672.42C667.089 1475.39 537.668 1535.74 445.791 1338.71C353.914 1141.68 483.335 1081.33 391.457 884.299C299.58 687.268 170.159 747.618 78.3244 550.677C-13.5528 353.646 115.868 293.296 23.9908 96.2646C-67.8865 -100.767 -197.307 -40.4168 -289.184 -237.448" stroke="#AEAEAE" stroke-miterlimit="10"/>
</g>
<defs>
<clipPath id="clip0_29_2">
<rect width="1700" height="830" fill="white"/>
</clipPath>
</defs>
</svg>
