<svg class="ugb-custom-icon" data-name="Layer 1" xmlns="http://www.w3.org/2000/svg" viewBox="0 0 39.91 10.63" aria-hidden="true" width="32" height="32"><path d="M17 4.06S15.23 0 11.16 0A29 29 0 0 0 6.8.34a15 15 0 0 1-2 .19A27.4 27.4 0 0 1 .64 0H.53A.53.53 0 0 0 0 .53c0 .2 0 4.78 2.66 4.78a16.88 16.88 0 0 0 4.78-.87 13.85 13.85 0 0 1 3.72-.72 16 16 0 0 1 5.12 1 .5.5 0 0 0 .38 0 .52.52 0 0 0 .34-.66ZM16 8.5a.53.53 0 0 1-.53.53 2.17 2.17 0 0 1-1.6-.71 6.91 6.91 0 0 1-5.37 2.31 6.77 6.77 0 0 1-5.77-2.92.52.52 0 0 1 .19-.71.53.53 0 0 1 .72.17 5.71 5.71 0 0 0 4.86 2.4 5.76 5.76 0 0 0 4.86-2.4.52.52 0 0 1 .48-.26.53.53 0 0 1 .45.29 1.42 1.42 0 0 0 1.12.8.53.53 0 0 1 .53.5ZM39.37 0h-.1a27.53 27.53 0 0 1-4.15.52 15.33 15.33 0 0 1-2-.19A28.87 28.87 0 0 0 28.75 0C24.67 0 23 4 22.94 4.06a.53.53 0 0 0 .31.68.48.48 0 0 0 .37 0 16 16 0 0 1 5.13-1 13.86 13.86 0 0 1 3.71.72 17 17 0 0 0 4.79.87c2.62 0 2.66-4.58 2.66-4.78a.54.54 0 0 0-.54-.55Zm-2.2 7.71a6.75 6.75 0 0 1-5.77 2.92 6.94 6.94 0 0 1-5.31-2.31 2.17 2.17 0 0 1-1.6.71.53.53 0 0 1-.49-.53.53.53 0 0 1 .49-.5 1.42 1.42 0 0 0 1.12-.77.54.54 0 0 1 .46-.29.51.51 0 0 1 .47.26 5.76 5.76 0 0 0 4.86 2.4 5.71 5.71 0 0 0 4.86-2.41A.53.53 0 0 1 37 7a.52.52 0 0 1 .17.71Z"/></svg>