<svg class="ugb-custom-icon" data-name="Layer 1" xmlns="http://www.w3.org/2000/svg" viewBox="0 0 40 28.45" aria-hidden="true" width="32" height="32"><path d="M5.17 1.42a27.16 27.16 0 0 0 3.66 8.85 18.18 18.18 0 0 0 6.53 6.42 10.48 10.48 0 0 0 4.22 1.22 9.47 9.47 0 0 0 4.11-.71 16.69 16.69 0 0 0 7-6 26.87 26.87 0 0 0 4-8.7c.09-.35.18-.71.25-1.07a1.12 1.12 0 1 0-2.15-.6 24.88 24.88 0 0 1-1.33 4.3c0 .08-.07.16-.1.25s.11-.27 0-.06a.69.69 0 0 0-.05.13l-.18.55c-.16.35-.32.69-.5 1-.35.7-.74 1.37-1.15 2-.2.31-.41.62-.62.93l-.33.45-.15.21-.08.1c-.07.09.17-.22 0 0a17.46 17.46 0 0 1-1.45 1.65c-.24.25-.5.49-.76.72l-.39.34-.21.17s-.28.22-.12.1-.08.06-.13.09a1.33 1.33 0 0 1-.19.14l-.44.3a8.85 8.85 0 0 1-.84.5l-.43.22-.23.11H23c-.17.08.21-.08.09 0-.3.12-.61.23-.92.33s-.6.16-.91.22h-.25c-.25 0 .28 0 0 0h-.5a7.85 7.85 0 0 1-1 0h-.44c-.28 0 .21 0 0 0h-.27A10.78 10.78 0 0 1 17 15s.27.12.11 0h-.1l-.21-.1-.45-.23a9.52 9.52 0 0 1-.87-.52l-.42-.28-.19-.14c-.07 0-.34-.27-.06 0-.26-.22-.53-.43-.79-.66a18.65 18.65 0 0 1-1.53-1.55l-.7-.84c-.11-.15.05.05.06.07l-.08-.11-.16-.2-.3-.44A24.86 24.86 0 0 1 9 6c-.08-.17-.16-.34-.23-.51v-.13c-.08-.17 0 .07 0 .09s-.09-.21-.13-.31c-.14-.35-.27-.7-.4-1-.24-.81-.48-1.54-.67-2.27-.09-.35-.17-.7-.25-1.05A1.13 1.13 0 0 0 6 0a1.15 1.15 0 0 0-.78 1.38Zm25.12 24.17c-.14-.24-.28-.49-.4-.75l-.18-.38c0-.06-.05-.14-.08-.19.06.15.07.18 0 .07a.42.42 0 0 1 0-.1 12.17 12.17 0 0 1-.52-1.58 15 15 0 0 1-.35-1.66c0-.11 0-.23-.05-.34.07.39 0-.07 0-.16 0-.28-.06-.56-.07-.84a22 22 0 0 1 0-2.93c0-.43.07-.86.12-1.28v-.39c0-.2-.05.3 0 .11l.09-.58c.09-.56.2-1.12.33-1.67a1.11 1.11 0 0 0-2.18-.55 26.12 26.12 0 0 0-.63 4.12 20.86 20.86 0 0 0 .46 6.4 14.67 14.67 0 0 0 1.5 3.83 1.12 1.12 0 0 0 1.93-1.13Zm-2.59-.87c.72.36 1.44.73 2.19 1a38.94 38.94 0 0 0 4.59 1.6c1.37.39 2.74.73 4.12 1.05a1.13 1.13 0 0 0 1.4-.73 1.14 1.14 0 0 0-.78-1.38c-2.15-.5-4.3-1.05-6.39-1.76-.63-.21-1.25-.44-1.87-.7l-.15-.06c.42.17.15.06.06 0l-.36-.16-.6-.28-1.06-.53a1.15 1.15 0 0 0-1.52.4 1.13 1.13 0 0 0 .4 1.53ZM10.75 12.63c.08.27.14.55.2.83l.18.93.09.58v.15c0 .05 0 .26 0 0a1.23 1.23 0 0 1 0 .19 24.32 24.32 0 0 1 .18 3.07q0 .87-.09 1.74v.66-.13.16c0 .3-.1.6-.16.9a14.18 14.18 0 0 1-.56 2l-.19.51a.36.36 0 0 0 0 .09c-.06.13.11-.26 0-.05l-.12.25a9.11 9.11 0 0 1-.51 1 1.12 1.12 0 0 0 1.93 1.13 16.63 16.63 0 0 0 2-7.72 25.88 25.88 0 0 0-.52-5.89c-.07-.36-.15-.72-.25-1.07a1.11 1.11 0 1 0-2.15.59ZM1.42 28.41a46.86 46.86 0 0 0 9.82-3.15l1.08-.54a1.13 1.13 0 0 0 .4-1.53 1.16 1.16 0 0 0-1.53-.4l-.93.47-.57.27-.32.15c-.12.05-.59.25-.13.06a40 40 0 0 1-4.36 1.48c-1.35.38-2.7.72-4.06 1A1.14 1.14 0 0 0 0 27.64a1.14 1.14 0 0 0 1.38.77Zm14.86-18a6.53 6.53 0 0 0 3.73 1 6.5 6.5 0 0 0 3.72-1 1.24 1.24 0 0 0 .52-.67 1.13 1.13 0 0 0-.12-.86 1.12 1.12 0 0 0-1.52-.4 4.36 4.36 0 0 1-.61.32s-.25.12-.07 0 0 0-.05 0l-.37.2-.42.1h-1.52a1.24 1.24 0 0 1-.43 0h-.22l-.41-.1-.36-.12L18 8.8h.09-.06a3.76 3.76 0 0 1-.61-.36 1.12 1.12 0 0 0-1.53.4 1.16 1.16 0 0 0 .4 1.53Z"/></svg>